<?xml version="1.0" standalone="no"?>
<!DOCTYPE svg PUBLIC "-//W3C//DTD SVG 20010904//EN"
 "http://www.w3.org/TR/2001/REC-SVG-20010904/DTD/svg10.dtd">
<svg version="1.0" xmlns="http://www.w3.org/2000/svg"
 width="700.000000pt" height="700.000000pt" viewBox="0 0 700.000000 700.000000"
 preserveAspectRatio="xMidYMid meet">
<metadata>
Created by potrace 1.14, written by Peter Selinger 2001-2017
</metadata>
<g transform="translate(0.000000,700.000000) scale(0.100000,-0.100000)"
fill="#000000" stroke="none">
<path d="M0 3500 l0 -3500 3500 0 3500 0 0 3500 0 3500 -3500 0 -3500 0 0
-3500z m1745 2179 c656 -56 1255 -409 1619 -952 34 -52 78 -124 97 -160 19
-37 36 -67 39 -67 3 0 20 30 39 67 82 156 219 339 367 487 661 658 1668 820
2503 402 166 -83 151 -66 151 -174 0 -374 -135 -810 -352 -1137 -271 -409
-660 -706 -1123 -861 -271 -90 -565 -127 -837 -106 -155 12 -344 46 -456 81
l-62 19 0 -517 0 -517 181 -17 c546 -53 1065 -200 1533 -436 161 -81 173 -89
200 -134 94 -154 -10 -341 -189 -341 -54 -1 -74 6 -205 71 -1117 548 -2388
547 -3505 -3 -127 -63 -145 -69 -200 -69 -180 2 -283 189 -189 342 26 43 43
55 149 110 469 244 1029 406 1584 460 l181 17 0 517 0 517 -62 -19 c-34 -11
-116 -31 -182 -44 -987 -201 -2000 323 -2405 1242 -114 259 -181 566 -181 827
l0 95 128 64 c383 194 771 271 1177 236z"/>
<path d="M1397 5229 c-113 -11 -299 -53 -404 -91 -80 -29 -83 -31 -83 -62 0
-17 13 -87 30 -154 103 -423 361 -784 734 -1027 304 -198 700 -299 1055 -267
152 14 328 50 449 94 l83 30 -7 47 c-3 25 -19 96 -34 157 -178 698 -778 1205
-1505 1274 -124 11 -190 11 -318 -1z"/>
<path d="M5267 5230 c-582 -61 -1100 -416 -1357 -930 -80 -159 -140 -343 -165
-506 l-6 -42 83 -30 c214 -77 497 -114 715 -94 409 39 763 198 1046 471 183
177 311 366 402 591 48 118 105 330 105 387 0 29 -4 33 -57 53 -222 83 -534
124 -766 100z"/>
</g>
</svg>
